<svg xmlns="http://www.w3.org/2000/svg" xmlns:xlink="http://www.w3.org/1999/xlink" width="300" zoomAndPan="magnify" viewBox="0 0 224.87999 112.499997" height="150" preserveAspectRatio="xMidYMid meet" version="1.0"><defs><g/><clipPath id="8daaab56b5"><path d="M 52 35.796875 L 82.894531 35.796875 L 82.894531 76.117188 L 52 76.117188 Z M 52 35.796875 " clip-rule="nonzero"/></clipPath></defs><g fill="#000000" fill-opacity="1"><g transform="translate(85.173645, 52.811829)"><g><path d="M 8.734375 0 L 4.90625 0 L 3.078125 -7.515625 L 1.46875 0 L 0 0 L 2.21875 -10.40625 L 6.125 -10.40625 L 7.84375 -2.78125 L 9.46875 -10.40625 L 10.984375 -10.40625 Z M 8.734375 0 "/></g></g></g><g fill="#000000" fill-opacity="1"><g transform="translate(96.21448, 52.811829)"><g><path d="M 6.734375 -10.578125 C 7.671875 -10.578125 8.429688 -10.453125 9.015625 -10.203125 C 9.609375 -9.960938 10.070312 -9.59375 10.40625 -9.09375 C 10.625 -8.757812 10.789062 -8.378906 10.90625 -7.953125 C 11.03125 -7.523438 11.09375 -7.03125 11.09375 -6.46875 C 11.09375 -5.988281 11.046875 -5.507812 10.953125 -5.03125 C 10.867188 -4.550781 10.75 -4.085938 10.59375 -3.640625 C 10.4375 -3.203125 10.242188 -2.785156 10.015625 -2.390625 C 9.796875 -2.003906 9.550781 -1.664062 9.28125 -1.375 C 8.757812 -0.820312 8.160156 -0.429688 7.484375 -0.203125 C 6.816406 0.015625 5.992188 0.125 5.015625 0.125 C 4.066406 0.125 3.300781 0.03125 2.71875 -0.15625 C 2.144531 -0.351562 1.6875 -0.671875 1.34375 -1.109375 C 1.101562 -1.421875 0.914062 -1.8125 0.78125 -2.28125 C 0.644531 -2.75 0.578125 -3.335938 0.578125 -4.046875 C 0.578125 -5.265625 0.789062 -6.347656 1.21875 -7.296875 C 1.65625 -8.253906 2.269531 -9.015625 3.0625 -9.578125 C 3.539062 -9.910156 4.078125 -10.160156 4.671875 -10.328125 C 5.265625 -10.492188 5.953125 -10.578125 6.734375 -10.578125 Z M 4.890625 -1.015625 C 5.140625 -1.015625 5.375 -1.125 5.59375 -1.34375 C 5.820312 -1.570312 6.03125 -1.875 6.21875 -2.25 C 6.40625 -2.625 6.578125 -3.050781 6.734375 -3.53125 C 6.898438 -4.019531 7.035156 -4.519531 7.140625 -5.03125 C 7.253906 -5.539062 7.335938 -6.050781 7.390625 -6.5625 C 7.453125 -7.070312 7.484375 -7.535156 7.484375 -7.953125 C 7.484375 -8.515625 7.425781 -8.898438 7.3125 -9.109375 C 7.195312 -9.328125 7.03125 -9.4375 6.8125 -9.4375 C 6.5625 -9.4375 6.320312 -9.328125 6.09375 -9.109375 C 5.863281 -8.890625 5.644531 -8.597656 5.4375 -8.234375 C 5.238281 -7.867188 5.0625 -7.445312 4.90625 -6.96875 C 4.75 -6.5 4.613281 -6.007812 4.5 -5.5 C 4.382812 -5 4.296875 -4.503906 4.234375 -4.015625 C 4.171875 -3.523438 4.140625 -3.070312 4.140625 -2.65625 C 4.140625 -2.03125 4.207031 -1.597656 4.34375 -1.359375 C 4.488281 -1.128906 4.671875 -1.015625 4.890625 -1.015625 Z M 4.890625 -1.015625 "/></g></g></g><g fill="#000000" fill-opacity="1"><g transform="translate(107.926914, 52.811829)"><g/></g></g><g fill="#000000" fill-opacity="1"><g transform="translate(111.547422, 52.811829)"><g><path d="M 2.21875 -10.40625 L 5.765625 -10.40625 L 3.828125 -1.375 L 7.15625 -1.375 L 6.890625 0 L 0 0 Z M 2.21875 -10.40625 "/></g></g></g><g fill="#000000" fill-opacity="1"><g transform="translate(119.93463, 52.811829)"><g><path d="M 3.546875 0 L 0 0 L 2.21875 -10.40625 L 5.765625 -10.40625 Z M 3.546875 0 "/></g></g></g><g fill="#000000" fill-opacity="1"><g transform="translate(125.766491, 52.811829)"><g><path d="M 12.03125 0 L 8.390625 0 L 9.90625 -7.078125 L 6.015625 0 L 3.78125 0 L 3.046875 -7.328125 L 1.46875 0 L 0 0 L 2.21875 -10.40625 L 6.390625 -10.40625 L 6.90625 -4.546875 L 10.046875 -10.40625 L 14.265625 -10.40625 Z M 12.03125 0 "/></g></g></g><g fill="#000000" fill-opacity="1"><g transform="translate(140.083402, 52.811829)"><g><path d="M 3.546875 0 L 0 0 L 2.21875 -10.40625 L 5.765625 -10.40625 Z M 3.546875 0 "/></g></g></g><g fill="#000000" fill-opacity="1"><g transform="translate(145.915267, 52.811829)"><g><path d="M 9.984375 -9.15625 L 7.34375 -9.15625 L 5.390625 0 L 1.859375 0 L 3.796875 -9.15625 L 1.203125 -9.15625 L 1.484375 -10.40625 L 10.265625 -10.40625 Z M 9.984375 -9.15625 "/></g></g></g><g fill="#000000" fill-opacity="1"><g transform="translate(155.498243, 52.811829)"><g><path d="M 6.453125 -7.390625 C 6.484375 -7.554688 6.5 -7.78125 6.5 -8.0625 C 6.5 -8.226562 6.488281 -8.390625 6.46875 -8.546875 C 6.445312 -8.703125 6.410156 -8.84375 6.359375 -8.96875 C 6.304688 -9.09375 6.222656 -9.191406 6.109375 -9.265625 C 6.003906 -9.335938 5.863281 -9.375 5.6875 -9.375 C 5.488281 -9.375 5.304688 -9.328125 5.140625 -9.234375 C 4.984375 -9.148438 4.84375 -9.039062 4.71875 -8.90625 C 4.59375 -8.769531 4.492188 -8.609375 4.421875 -8.421875 C 4.347656 -8.242188 4.3125 -8.0625 4.3125 -7.875 C 4.3125 -7.582031 4.382812 -7.359375 4.53125 -7.203125 C 4.675781 -7.054688 4.867188 -6.929688 5.109375 -6.828125 C 5.347656 -6.734375 5.617188 -6.648438 5.921875 -6.578125 C 6.234375 -6.515625 6.554688 -6.441406 6.890625 -6.359375 C 7.160156 -6.285156 7.429688 -6.1875 7.703125 -6.0625 C 7.972656 -5.945312 8.210938 -5.785156 8.421875 -5.578125 C 8.640625 -5.378906 8.8125 -5.117188 8.9375 -4.796875 C 9.070312 -4.472656 9.140625 -4.070312 9.140625 -3.59375 C 9.140625 -2.90625 9.003906 -2.320312 8.734375 -1.84375 C 8.460938 -1.375 8.085938 -0.992188 7.609375 -0.703125 C 7.128906 -0.410156 6.554688 -0.195312 5.890625 -0.0625 C 5.234375 0.0625 4.515625 0.125 3.734375 0.125 C 2.953125 0.125 2.3125 0.0703125 1.8125 -0.03125 C 1.3125 -0.132812 0.921875 -0.242188 0.640625 -0.359375 C 0.296875 -0.503906 0.046875 -0.671875 -0.109375 -0.859375 L 0.4375 -3.09375 L 3.328125 -3.09375 C 3.316406 -3 3.304688 -2.863281 3.296875 -2.6875 C 3.285156 -2.519531 3.28125 -2.390625 3.28125 -2.296875 C 3.28125 -2.160156 3.296875 -2.019531 3.328125 -1.875 C 3.359375 -1.738281 3.410156 -1.609375 3.484375 -1.484375 C 3.554688 -1.367188 3.65625 -1.269531 3.78125 -1.1875 C 3.914062 -1.113281 4.082031 -1.078125 4.28125 -1.078125 C 4.5 -1.078125 4.691406 -1.125 4.859375 -1.21875 C 5.023438 -1.320312 5.164062 -1.445312 5.28125 -1.59375 C 5.394531 -1.738281 5.484375 -1.898438 5.546875 -2.078125 C 5.609375 -2.265625 5.640625 -2.445312 5.640625 -2.625 C 5.640625 -2.863281 5.582031 -3.0625 5.46875 -3.21875 C 5.351562 -3.382812 5.195312 -3.523438 5 -3.640625 C 4.800781 -3.753906 4.570312 -3.851562 4.3125 -3.9375 C 4.0625 -4.019531 3.800781 -4.109375 3.53125 -4.203125 C 3.257812 -4.273438 2.976562 -4.363281 2.6875 -4.46875 C 2.40625 -4.582031 2.144531 -4.738281 1.90625 -4.9375 C 1.664062 -5.132812 1.460938 -5.378906 1.296875 -5.671875 C 1.140625 -5.972656 1.0625 -6.359375 1.0625 -6.828125 C 1.0625 -7.535156 1.238281 -8.125 1.59375 -8.59375 C 1.945312 -9.070312 2.394531 -9.457031 2.9375 -9.75 C 3.476562 -10.039062 4.070312 -10.25 4.71875 -10.375 C 5.363281 -10.507812 5.976562 -10.578125 6.5625 -10.578125 C 7.320312 -10.578125 7.976562 -10.484375 8.53125 -10.296875 C 9.082031 -10.117188 9.5 -9.910156 9.78125 -9.671875 L 9.171875 -7.390625 Z M 6.453125 -7.390625 "/></g></g></g><g clip-path="url(#8daaab56b5)"><path fill="#8c2020" d="M 76.703125 45.796875 C 76.203125 42.023438 79.257812 36.699219 72.6875 35.917969 C 71.664062 35.796875 68.507812 35.898438 69.003906 37.59375 C 69.210938 38.308594 68.398438 39.015625 68.386719 39.890625 C 68.359375 41.996094 67.320312 42.328125 67.382812 43.390625 C 67.410156 43.835938 68.082031 43.550781 68.234375 43.722656 C 68.351562 43.851562 68.164062 44.011719 68.171875 44.414062 C 68.171875 44.539062 68.253906 44.792969 68.226562 44.972656 C 68.171875 45.386719 67.714844 45.816406 67.953125 45.984375 C 68.640625 46.472656 70.15625 45.792969 70.597656 47.25 C 70.746094 47.734375 70.476562 48.078125 69.996094 48.746094 C 72.417969 47.480469 72.820312 45.585938 72.820312 45.585938 C 72.578125 47.984375 69.273438 49.816406 69.273438 49.816406 C 71.925781 50.914062 72.71875 52.78125 72.71875 52.78125 C 71.695312 51.316406 69.917969 50.699219 68.851562 50.449219 L 68.839844 50.464844 C 67.710938 50.265625 65.941406 50.234375 64.210938 51.363281 C 63.15625 52.050781 62.195312 53.015625 60.515625 53.007812 C 60.515625 53.007812 62.480469 52.695312 63.828125 51.21875 C 62.820312 50.878906 60.183594 49.59375 57.34375 52.183594 C 56.53125 53.828125 55.355469 53.9375 55.355469 53.9375 C 56.632812 53.464844 58.148438 50.273438 57.269531 46.039062 C 57.269531 46.039062 57.160156 45.453125 57.371094 45 C 56.925781 45.324219 56.644531 45.769531 56.644531 45.769531 C 57.082031 44.496094 57.644531 44.519531 58.132812 44.503906 C 60.582031 44.421875 59.671875 44.601562 60.835938 43.03125 C 61.488281 42.15625 59.507812 41.113281 58.710938 40.902344 C 58.167969 40.757812 57.058594 41.898438 56.515625 42.359375 C 55.816406 42.957031 55.394531 44.53125 54.691406 45.980469 C 53.664062 48.101562 51.53125 52.171875 53.273438 55.304688 C 53.523438 55.753906 54.289062 55.625 55.105469 56.242188 C 56.074219 56.964844 60.359375 57.878906 62.691406 56.65625 C 62.691406 56.65625 65.1875 56.652344 66.75 54.917969 C 66.75 54.917969 65.835938 56.546875 63.203125 56.984375 C 63.933594 57.574219 65.28125 58.546875 66.859375 59.140625 C 65.824219 61.675781 68.09375 64.203125 68.253906 66.6875 C 68.941406 65.628906 69.589844 64.132812 69.9375 62.03125 C 69.9375 62.03125 70.183594 64.777344 68.707031 67.765625 C 66.636719 71.964844 67.144531 76.195312 67.144531 76.195312 C 69.898438 67.015625 81.414062 62.566406 82.289062 55.546875 C 82.9375 50.367188 77.109375 48.886719 76.703125 45.796875 " fill-opacity="1" fill-rule="nonzero"/></g><g fill="#000000" fill-opacity="1"><g transform="translate(85.352505, 62.695778)"><g><path d="M 1.109375 -5.203125 L 4.5625 -5.203125 L 4.421875 -4.578125 L 2.75 -4.578125 L 2.421875 -3.078125 L 3.828125 -3.078125 L 3.703125 -2.453125 L 2.296875 -2.453125 L 1.765625 0 L 0 0 Z M 1.109375 -5.203125 "/></g></g></g><g fill="#000000" fill-opacity="1"><g transform="translate(90.377644, 62.695778)"><g><path d="M 1.765625 0 L 0 0 L 1.109375 -5.203125 L 2.890625 -5.203125 Z M 1.765625 0 "/></g></g></g><g fill="#000000" fill-opacity="1"><g transform="translate(94.050176, 62.695778)"><g><path d="M 5 -4.578125 L 3.671875 -4.578125 L 2.703125 0 L 0.921875 0 L 1.90625 -4.578125 L 0.59375 -4.578125 L 0.75 -5.203125 L 5.140625 -5.203125 Z M 5 -4.578125 "/></g></g></g><g fill="#000000" fill-opacity="1"><g transform="translate(99.599962, 62.695778)"><g><path d="M 4.375 0 L 2.453125 0 L 1.546875 -3.765625 L 0.734375 0 L 0 0 L 1.109375 -5.203125 L 3.0625 -5.203125 L 3.921875 -1.390625 L 4.734375 -5.203125 L 5.5 -5.203125 Z M 4.375 0 "/></g></g></g><g fill="#000000" fill-opacity="1"><g transform="translate(105.879339, 62.695778)"><g><path d="M 1.109375 -5.203125 L 4.5625 -5.203125 L 4.421875 -4.578125 L 2.75 -4.578125 L 2.40625 -3 L 3.8125 -3 L 3.6875 -2.390625 L 2.28125 -2.390625 L 1.90625 -0.625 L 3.578125 -0.625 L 3.453125 0 L 0 0 Z M 1.109375 -5.203125 "/></g></g></g><g fill="#000000" fill-opacity="1"><g transform="translate(111.002847, 62.695778)"><g><path d="M 3.234375 -3.703125 C 3.242188 -3.785156 3.25 -3.894531 3.25 -4.03125 C 3.25 -4.113281 3.242188 -4.191406 3.234375 -4.265625 C 3.222656 -4.347656 3.203125 -4.421875 3.171875 -4.484375 C 3.148438 -4.546875 3.113281 -4.59375 3.0625 -4.625 C 3.007812 -4.664062 2.9375 -4.6875 2.84375 -4.6875 C 2.75 -4.6875 2.660156 -4.664062 2.578125 -4.625 C 2.492188 -4.582031 2.421875 -4.523438 2.359375 -4.453125 C 2.296875 -4.390625 2.242188 -4.3125 2.203125 -4.21875 C 2.171875 -4.125 2.15625 -4.03125 2.15625 -3.9375 C 2.15625 -3.789062 2.191406 -3.679688 2.265625 -3.609375 C 2.335938 -3.535156 2.429688 -3.472656 2.546875 -3.421875 C 2.671875 -3.367188 2.8125 -3.328125 2.96875 -3.296875 C 3.125 -3.265625 3.28125 -3.226562 3.4375 -3.1875 C 3.582031 -3.144531 3.722656 -3.09375 3.859375 -3.03125 C 3.992188 -2.96875 4.113281 -2.882812 4.21875 -2.78125 C 4.320312 -2.6875 4.40625 -2.554688 4.46875 -2.390625 C 4.539062 -2.234375 4.578125 -2.035156 4.578125 -1.796875 C 4.578125 -1.453125 4.507812 -1.160156 4.375 -0.921875 C 4.238281 -0.691406 4.046875 -0.5 3.796875 -0.34375 C 3.554688 -0.195312 3.269531 -0.09375 2.9375 -0.03125 C 2.613281 0.03125 2.257812 0.0625 1.875 0.0625 C 1.476562 0.0625 1.15625 0.0351562 0.90625 -0.015625 C 0.65625 -0.0664062 0.457031 -0.125 0.3125 -0.1875 C 0.144531 -0.25 0.0195312 -0.328125 -0.0625 -0.421875 L 0.21875 -1.546875 L 1.671875 -1.546875 C 1.660156 -1.492188 1.648438 -1.425781 1.640625 -1.34375 C 1.640625 -1.257812 1.640625 -1.191406 1.640625 -1.140625 C 1.640625 -1.078125 1.644531 -1.007812 1.65625 -0.9375 C 1.675781 -0.875 1.703125 -0.8125 1.734375 -0.75 C 1.773438 -0.6875 1.828125 -0.632812 1.890625 -0.59375 C 1.960938 -0.5625 2.046875 -0.546875 2.140625 -0.546875 C 2.253906 -0.546875 2.351562 -0.566406 2.4375 -0.609375 C 2.519531 -0.660156 2.585938 -0.722656 2.640625 -0.796875 C 2.703125 -0.867188 2.75 -0.953125 2.78125 -1.046875 C 2.8125 -1.140625 2.828125 -1.226562 2.828125 -1.3125 C 2.828125 -1.4375 2.796875 -1.535156 2.734375 -1.609375 C 2.679688 -1.691406 2.601562 -1.757812 2.5 -1.8125 C 2.40625 -1.875 2.289062 -1.925781 2.15625 -1.96875 C 2.03125 -2.007812 1.898438 -2.050781 1.765625 -2.09375 C 1.628906 -2.132812 1.488281 -2.179688 1.34375 -2.234375 C 1.195312 -2.296875 1.0625 -2.375 0.9375 -2.46875 C 0.820312 -2.5625 0.722656 -2.679688 0.640625 -2.828125 C 0.566406 -2.984375 0.53125 -3.179688 0.53125 -3.421875 C 0.53125 -3.773438 0.617188 -4.066406 0.796875 -4.296875 C 0.972656 -4.535156 1.195312 -4.726562 1.46875 -4.875 C 1.738281 -5.03125 2.035156 -5.140625 2.359375 -5.203125 C 2.679688 -5.265625 2.988281 -5.296875 3.28125 -5.296875 C 3.664062 -5.296875 3.992188 -5.25 4.265625 -5.15625 C 4.546875 -5.0625 4.753906 -4.957031 4.890625 -4.84375 L 4.59375 -3.703125 Z M 3.234375 -3.703125 "/></g></g></g><g fill="#000000" fill-opacity="1"><g transform="translate(116.814958, 62.695778)"><g><path d="M 3.234375 -3.703125 C 3.242188 -3.785156 3.25 -3.894531 3.25 -4.03125 C 3.25 -4.113281 3.242188 -4.191406 3.234375 -4.265625 C 3.222656 -4.347656 3.203125 -4.421875 3.171875 -4.484375 C 3.148438 -4.546875 3.113281 -4.59375 3.0625 -4.625 C 3.007812 -4.664062 2.9375 -4.6875 2.84375 -4.6875 C 2.75 -4.6875 2.660156 -4.664062 2.578125 -4.625 C 2.492188 -4.582031 2.421875 -4.523438 2.359375 -4.453125 C 2.296875 -4.390625 2.242188 -4.3125 2.203125 -4.21875 C 2.171875 -4.125 2.15625 -4.03125 2.15625 -3.9375 C 2.15625 -3.789062 2.191406 -3.679688 2.265625 -3.609375 C 2.335938 -3.535156 2.429688 -3.472656 2.546875 -3.421875 C 2.671875 -3.367188 2.8125 -3.328125 2.96875 -3.296875 C 3.125 -3.265625 3.28125 -3.226562 3.4375 -3.1875 C 3.582031 -3.144531 3.722656 -3.09375 3.859375 -3.03125 C 3.992188 -2.96875 4.113281 -2.882812 4.21875 -2.78125 C 4.320312 -2.6875 4.40625 -2.554688 4.46875 -2.390625 C 4.539062 -2.234375 4.578125 -2.035156 4.578125 -1.796875 C 4.578125 -1.453125 4.507812 -1.160156 4.375 -0.921875 C 4.238281 -0.691406 4.046875 -0.5 3.796875 -0.34375 C 3.554688 -0.195312 3.269531 -0.09375 2.9375 -0.03125 C 2.613281 0.03125 2.257812 0.0625 1.875 0.0625 C 1.476562 0.0625 1.15625 0.0351562 0.90625 -0.015625 C 0.65625 -0.0664062 0.457031 -0.125 0.3125 -0.1875 C 0.144531 -0.25 0.0195312 -0.328125 -0.0625 -0.421875 L 0.21875 -1.546875 L 1.671875 -1.546875 C 1.660156 -1.492188 1.648438 -1.425781 1.640625 -1.34375 C 1.640625 -1.257812 1.640625 -1.191406 1.640625 -1.140625 C 1.640625 -1.078125 1.644531 -1.007812 1.65625 -0.9375 C 1.675781 -0.875 1.703125 -0.8125 1.734375 -0.75 C 1.773438 -0.6875 1.828125 -0.632812 1.890625 -0.59375 C 1.960938 -0.5625 2.046875 -0.546875 2.140625 -0.546875 C 2.253906 -0.546875 2.351562 -0.566406 2.4375 -0.609375 C 2.519531 -0.660156 2.585938 -0.722656 2.640625 -0.796875 C 2.703125 -0.867188 2.75 -0.953125 2.78125 -1.046875 C 2.8125 -1.140625 2.828125 -1.226562 2.828125 -1.3125 C 2.828125 -1.4375 2.796875 -1.535156 2.734375 -1.609375 C 2.679688 -1.691406 2.601562 -1.757812 2.5 -1.8125 C 2.40625 -1.875 2.289062 -1.925781 2.15625 -1.96875 C 2.03125 -2.007812 1.898438 -2.050781 1.765625 -2.09375 C 1.628906 -2.132812 1.488281 -2.179688 1.34375 -2.234375 C 1.195312 -2.296875 1.0625 -2.375 0.9375 -2.46875 C 0.820312 -2.5625 0.722656 -2.679688 0.640625 -2.828125 C 0.566406 -2.984375 0.53125 -3.179688 0.53125 -3.421875 C 0.53125 -3.773438 0.617188 -4.066406 0.796875 -4.296875 C 0.972656 -4.535156 1.195312 -4.726562 1.46875 -4.875 C 1.738281 -5.03125 2.035156 -5.140625 2.359375 -5.203125 C 2.679688 -5.265625 2.988281 -5.296875 3.28125 -5.296875 C 3.664062 -5.296875 3.992188 -5.25 4.265625 -5.15625 C 4.546875 -5.0625 4.753906 -4.957031 4.890625 -4.84375 L 4.59375 -3.703125 Z M 3.234375 -3.703125 "/></g></g></g></svg>